<?xml version="1.0" encoding="utf-8"?>
<!-- Generator: Adobe Illustrator 22.0.1, SVG Export Plug-In . SVG Version: 6.00 Build 0)  -->
<svg version="1.1" id="Layer_1" xmlns="http://www.w3.org/2000/svg" xmlns:xlink="http://www.w3.org/1999/xlink" x="0px" y="0px"
	 viewBox="0 0 325 72" style="enable-background:new 0 0 325 72;" xml:space="preserve">
<style type="text/css">
	.st0{fill:#AB47BC;}
	.st1{fill:#FDE860;}
	.st2{fill:#8A2CB0;}
	.st3{fill:#00ADEE;}
	.st4{fill:#E99D24;}
	.st5{fill:#11202C;}
</style>
<g>
	<path class="st0" d="M272.5,26.5v5.8h9.9v7.6h-9.9v13h-8.3v-34h18.6v7.6H272.5z"/>
	<path class="st0" d="M287.5,24.7v-5.8h7.6v5.8H287.5z M287.5,52.9V27.4h7.6v25.5H287.5z"/>
	<path class="st0" d="M317.1,52.9V39c0-2.9-0.6-5.3-4-5.3c-3.5,0-4.4,2.3-4.4,5.3v13.9h-7.6V27.4h7.1v2.7h0.1
		c1.6-2.6,3.9-3.6,6.9-3.6c2.2,0,4.9,0.8,6.5,2.2c2.4,2,2.9,5.2,2.9,8.2v16H317.1z"/>
</g>
<g>
	<g>
		<path class="st1" d="M63.7,19.4l-6.7,4l-18.5,11c-3,1.8-4.9,5.1-4.9,8.6v20.7v7.8c1.4-0.2,2.7-0.6,3.8-1.2l22.2-12.7
			c3.1-1.8,5-5.1,5-8.7V23.4C64.6,22.1,64.3,20.7,63.7,19.4z"/>
		<g>
			<path class="st2" d="M53.5,52.9c2.5-1.4,4-4.1,4-7V26.4c0-1-0.2-2-0.6-2.9l-18.5,11c-3,1.8-4.9,5.1-4.9,8.6v20.7
				c1-0.1,2-0.4,2.9-1L53.5,52.9z"/>
			<path class="st0" d="M63.7,19.4l-6.7,4c0.4,0.9,0.6,1.9,0.6,2.9v19.6c0,2.9-1.6,5.6-4,7l-17.1,9.8c-0.9,0.5-1.9,0.8-2.9,1v7.8
				c1.4-0.2,2.7-0.6,3.8-1.2l22.2-12.7c3.1-1.8,5-5.1,5-8.7V23.4C64.6,22.1,64.3,20.7,63.7,19.4z"/>
		</g>
	</g>
	<g>
		<path class="st3" d="M59.5,14.8L37.4,2c-3.1-1.8-6.9-1.8-10,0L5.3,14.8c-1.3,0.7-2.4,1.8-3.2,3l6.8,3.9l18.7,10.8
			c2.1,1.3,3.8,3.2,4.9,5.4c1-2.2,2.7-4.1,4.9-5.4l18.6-11l6.7-4C61.7,16.3,60.7,15.4,59.5,14.8z"/>
		<g>
			<path class="st2" d="M53.5,19.4L36.4,9.5c-2.5-1.4-5.6-1.4-8.1,0l-17,9.8c-1,0.6-1.9,1.4-2.5,2.3l18.7,10.8
				c2.1,1.3,3.8,3.2,4.9,5.4c1-2.2,2.7-4.1,4.9-5.4l18.6-11C55.2,20.6,54.4,19.9,53.5,19.4z"/>
			<path class="st0" d="M59.5,14.8L37.4,2c-3.1-1.8-6.9-1.8-10,0L5.3,14.8c-1.3,0.7-2.4,1.8-3.2,3l6.8,3.9c0.7-0.9,1.5-1.7,2.5-2.3
				l17-9.8c2.5-1.4,5.6-1.4,8.1,0l17.1,9.8c0.9,0.5,1.7,1.2,2.3,2.1l6.7-4C61.7,16.3,60.7,15.4,59.5,14.8z"/>
		</g>
	</g>
	<g>
		<path class="st4" d="M26.3,34.4L7.8,23.7L1,19.8c-0.5,1.2-0.7,2.4-0.7,3.6v25.5c0,3.6,1.9,6.9,5,8.6l22.1,12.7
			c1.2,0.7,2.4,1.1,3.8,1.2v-7.8V43C31.2,39.5,29.4,36.2,26.3,34.4z"/>
		<g>
			<path class="st0" d="M11.4,52.9c-2.5-1.4-4-4.1-4-7V26.3c0-0.9,0.2-1.8,0.5-2.6L1,19.8c-0.5,1.2-0.7,2.4-0.7,3.6v25.5
				c0,3.6,1.9,6.9,5,8.6l22.1,12.7c1.2,0.7,2.4,1.1,3.8,1.2v-7.8c-1-0.1-2-0.5-2.9-1L11.4,52.9z"/>
			<path class="st2" d="M26.3,34.4L7.8,23.7c-0.3,0.8-0.5,1.7-0.5,2.6v19.6c0,2.9,1.5,5.6,4,7l17,9.8c0.9,0.5,1.9,0.8,2.9,1V43
				C31.2,39.5,29.4,36.2,26.3,34.4z"/>
		</g>
	</g>
</g>
<g>
	<path class="st5" d="M88.1,19.1h6.7v11.1h0.1c0.7-1,1.7-1.7,3-2.3c1.2-0.5,2.5-0.9,3.8-1.1c0.3,0,0.7-0.1,1-0.1c0.3,0,0.6,0,0.9,0
		c4.1,0,7.5,1.4,10.1,4.1c2.6,2.7,3.9,5.9,3.9,9.4c0,0.5,0,1.1-0.1,1.6c-0.1,0.6-0.2,1.1-0.4,1.7c-0.3,1.1-0.7,2.2-1.2,3.2
		c-0.5,1-1.2,2-1.9,2.8c-1.2,1.4-2.8,2.4-4.6,3.1c-1.8,0.7-3.7,1.1-5.7,1.1c-1.9,0-3.7-0.3-5.3-1c-1.6-0.7-3-1.7-4.1-3.2l-0.1,0V53
		h-6.2V19.1z M96.9,34.8c-1.7,1.4-2.5,3.1-2.5,5.2c0,2.2,0.8,4.1,2.3,5.6c1.5,1.5,3.6,2.3,6.1,2.3c2.4,0,4.3-0.7,5.8-2.2
		c1.5-1.4,2.2-3.2,2.2-5.4c0-2.1-0.7-3.9-2.2-5.4c-1.5-1.5-3.4-2.2-5.8-2.2C100.5,32.7,98.6,33.4,96.9,34.8z"/>
	<path class="st5" d="M149.7,53h-6.2v-3.4h-0.1c-0.8,1.1-2,2-3.3,2.7c-1.4,0.7-2.8,1.2-4.3,1.4c-0.3,0-0.6,0.1-0.9,0.1
		c-0.3,0-0.6,0-0.9,0c-2.2,0-4.1-0.4-5.9-1.1c-1.7-0.7-3.2-1.8-4.4-3.1c-1.1-1.2-2-2.6-2.6-4.2c-0.6-1.6-0.9-3.3-0.9-5
		c0-1.8,0.3-3.4,0.8-4.9c0.6-1.5,1.5-2.9,2.8-4.2c1.4-1.5,3-2.6,4.7-3.3c1.7-0.7,3.6-1.1,5.7-1.1c1.9,0,3.7,0.4,5.3,1.1
		c1.6,0.7,3,1.8,4.1,3.3v-3.6h6.2V53z M143.3,40.2c0-2.1-0.7-3.9-2.2-5.3c-1.5-1.5-3.4-2.2-5.8-2.1c-2.5,0-4.5,0.7-6,2.2
		c-1.6,1.5-2.3,3.4-2.3,5.6c0,2.1,0.8,3.8,2.4,5.3c1.6,1.4,3.6,2.1,5.8,2.1c2.4,0,4.4-0.7,5.9-2.2C142.6,44.3,143.3,42.5,143.3,40.2
		L143.3,40.2z"/>
	<path class="st5" d="M154.7,19.1h6.7V53h-6.7V19.1z"/>
	<path class="st5" d="M172.7,43c0.5,1.5,1.4,2.7,2.8,3.6c1.4,0.9,2.9,1.3,4.6,1.3c1.3,0,2.5-0.2,3.6-0.6c1.1-0.4,2-0.9,2.6-1.6
		l7.4,0c-0.8,2.3-2.5,4.2-5.1,5.8c-2.6,1.6-5.3,2.4-8.3,2.4c-4.1,0-7.5-1.3-10.4-3.9c-2.9-2.6-4.3-5.7-4.3-9.4c0-3.8,1.4-7,4.3-9.7
		c2.9-2.7,6.4-4,10.5-4c4,0,7.4,1.3,10.2,4c2.8,2.7,4.2,5.8,4.2,9.3c0,0.4,0,0.8-0.1,1.2c-0.1,0.4-0.1,0.8-0.2,1.1
		c0,0.1-0.1,0.2-0.1,0.3c0,0.1,0,0.2,0,0.3H172.7z M188,37.6c-0.5-1.5-1.5-2.7-2.9-3.5c-1.4-0.9-3-1.3-4.7-1.3c-0.1,0-0.1,0-0.2,0
		c-0.1,0-0.1,0-0.2,0c-1.6,0.1-3.1,0.6-4.5,1.4c-1.4,0.9-2.4,2-2.8,3.4H188z"/>
	<path class="st5" d="M199.1,27.6h6.2v2.3h0.1c0.8-0.9,1.8-1.7,3.1-2.2c1.3-0.5,2.6-0.8,4-0.9c0.1,0,0.2,0,0.3,0c0.1,0,0.2,0,0.3,0
		c0.1,0,0.3,0,0.4,0c0.1,0,0.3,0,0.4,0c1.3,0.1,2.6,0.4,3.9,1c1.3,0.6,2.3,1.3,3.3,2.2c0.1,0.1,0.3,0.2,0.4,0.3
		c0.1,0.1,0.2,0.2,0.3,0.4c1.1,1.4,1.7,2.8,1.9,4.4c0.2,1.6,0.3,3.1,0.3,4.8V53h-6.7V41c0-0.4,0-0.8,0-1.2c0-0.4,0-0.9-0.1-1.3
		c-0.1-0.7-0.2-1.3-0.4-1.9c-0.2-0.6-0.4-1.2-0.8-1.7c-0.4-0.6-1-1.1-1.8-1.5c-0.8-0.4-1.5-0.6-2.3-0.6c0,0-0.1,0-0.1,0
		s-0.1,0-0.2,0c-0.1,0-0.2,0-0.3,0c-0.1,0-0.2,0-0.4,0c-0.8,0.1-1.5,0.3-2.3,0.7c-0.7,0.4-1.3,0.9-1.7,1.5c-0.3,0.5-0.6,1.1-0.8,1.7
		c-0.2,0.7-0.3,1.3-0.3,2c0,0.4,0,0.8,0,1.2c0,0.4,0,0.8,0,1.1c0,0.1,0,0.2,0,0.3c0,0.1,0,0.1,0,0.2V53h-6.7V27.6z"/>
	<path class="st5" d="M257.7,53h-6.2v-3.4h-0.1c-0.8,1.1-2,2-3.3,2.7c-1.4,0.7-2.8,1.2-4.3,1.4c-0.3,0-0.6,0.1-0.9,0.1
		c-0.3,0-0.6,0-0.9,0c-2.2,0-4.1-0.4-5.9-1.1c-1.7-0.7-3.2-1.8-4.4-3.1c-1.1-1.2-2-2.6-2.6-4.2c-0.6-1.6-0.9-3.3-0.9-5
		c0-1.8,0.3-3.4,0.8-4.9c0.6-1.5,1.5-2.9,2.8-4.2c1.4-1.5,3-2.6,4.7-3.3c1.7-0.7,3.6-1.1,5.7-1.1c1.9,0,3.7,0.4,5.3,1.1
		c1.6,0.7,3,1.8,4.1,3.3v-3.6h6.2V53z M251.3,40.2c0-2.1-0.7-3.9-2.2-5.3c-1.5-1.5-3.4-2.2-5.8-2.1c-2.5,0-4.5,0.7-6,2.2
		c-1.6,1.5-2.3,3.4-2.3,5.6c0,2.1,0.8,3.8,2.4,5.3c1.6,1.4,3.6,2.1,5.8,2.1c2.4,0,4.4-0.7,5.9-2.2C250.5,44.3,251.3,42.5,251.3,40.2
		L251.3,40.2z"/>
</g>
</svg>
