<svg xmlns="http://www.w3.org/2000/svg" xmlns:xlink="http://www.w3.org/1999/xlink" width="46" height="89" viewBox="0 0 46 89">
    <defs>
        <path id="a" d="M.36.532a.23.23 0 0 0-.144.293c.052.15 5.288 20.598 22.804 22.971a.232.232 0 0 0 .229-.199.232.232 0 0 0-.197-.259C5.857 21.008.703.825.652.676A.229.229 0 0 0 .36.532z"/>
        <path id="c" d="M23.388.676c-.05.149-5.204 20.332-22.399 22.662a.231.231 0 0 0-.197.259c.016.114.114.199.26.198C18.536 21.423 23.773.975 23.824.825a.23.23 0 1 0-.436-.149z"/>
        <path id="e" d="M.87.103a.231.231 0 0 0-.167.279c.146.564 3.6 19.38 9.185 23.371a.236.236 0 0 0 .132.043.23.23 0 0 0 .132-.418C4.706 19.485 1.184.405 1.151.268 1.125.167 1.043.093.938.093a.233.233 0 0 0-.068.01z"/>
        <path id="g" d="M9.889.268C9.856.405 6.335 19.485.888 23.378a.23.23 0 0 0 .132.418.233.233 0 0 0 .132-.043C6.738 19.762 10.191.946 10.336.382a.23.23 0 0 0-.165-.279.216.216 0 0 0-.066-.01.228.228 0 0 0-.216.175z"/>
        <path id="i" d="M.377 23.039c0 .481.019.941.058 1.402.421-3.353 3.312-5.949 6.772-5.949 3.314 0 6.095 2.376 6.721 5.523a7.94 7.94 0 0 1-.057-.976 9.136 9.136 0 0 1 9.149-9.148c5.044 0 9.151 4.086 9.151 9.148a8.4 8.4 0 0 1-.055.922c.623-3.11 3.403-5.469 6.698-5.469a6.851 6.851 0 0 1 6.795 6.021c.035-.479.052-.974.052-1.474C45.661 10.541 35.519.398 23.02.398 10.521.398.377 10.541.377 23.039z"/>
        <path id="k" d="M.872 23.039a9.136 9.136 0 0 1 9.149-9.148 9.143 9.143 0 0 1 9.144 9.119C19.157 8.305 10.021.398 10.021.398S.872 8.313.872 23.039z"/>
    </defs>
    <g fill="none" fill-rule="evenodd">
        <g transform="translate(0 22.806)">
            <mask id="b" fill="#fff">
                <use xlink:href="#a"/>
            </mask>
            <path fill="#BFC5DB" d="M-9 33h41.454V-8.685H-9z" mask="url(#b)"/>
        </g>
        <g transform="translate(22 22.806)">
            <mask id="d" fill="#fff">
                <use xlink:href="#c"/>
            </mask>
            <path fill="#BFC5DB" d="M-8.415 32.999H33.04V-8.685H-8.415z" mask="url(#d)"/>
        </g>
        <g transform="translate(13 22.806)">
            <mask id="f" fill="#fff">
                <use xlink:href="#e"/>
            </mask>
            <path fill="#BFC5DB" d="M-8.507 33h27.962V-9.11H-8.507z" mask="url(#f)"/>
        </g>
        <g transform="translate(22 22.806)">
            <mask id="h" fill="#fff">
                <use xlink:href="#g"/>
            </mask>
            <path fill="#BFC5DB" d="M-8.415 33h27.962V-9.11H-8.415z" mask="url(#h)"/>
        </g>
        <g transform="translate(0 -.194)">
            <mask id="j" fill="#fff">
                <use xlink:href="#i"/>
            </mask>
            <path fill="#DDE1F0" d="M-8.827 33.716h63.692V-8.806H-8.827z" mask="url(#j)"/>
        </g>
        <g transform="translate(13 -.194)">
            <mask id="l" fill="#fff">
                <use xlink:href="#k"/>
            </mask>
            <path fill="#BFC5DB" d="M-8.333 32.244h36.702v-41.05H-8.333z" mask="url(#l)"/>
        </g>
        <g>
            <path fill="#AC3BB5" d="M23.882 72.025v12.206a4.639 4.639 0 0 0 1.473-.528l10.1-5.807a4.786 4.786 0 0 0 2.395-4.14V62.175c0-.47-.078-.926-.213-1.363L26.66 67.145c-2.257 1.596-2.745 3.107-2.777 4.88"/>
            <path fill="#CF83DC" d="M41.643 58.5l-4.006 2.312c.135.436.212.893.212 1.361v11.584c0 1.703-.917 3.29-2.394 4.14l-10.1 5.806a4.645 4.645 0 0 1-1.472.529v4.61a5.77 5.77 0 0 0 2.03-.695l13.116-7.542a5.922 5.922 0 0 0 2.961-5.119V60.444a5.74 5.74 0 0 0-.347-1.944"/>
            <path fill="#AC3BB5" d="M22.962 68.189c.597-.975 1.487-1.816 2.766-2.621l11.05-6.376a4.672 4.672 0 0 0-1.323-1.158l-10.1-5.806a4.791 4.791 0 0 0-4.767.002L10.53 58.033c-.53.305-.974.716-1.34 1.184l10.998 6.346c1.286.81 2.177 1.651 2.774 2.626"/>
            <path fill="#CF83DC" d="M10.53 58.033l10.058-5.803a4.791 4.791 0 0 1 4.767-.003l10.1 5.808c.52.299.96.7 1.322 1.157l4-2.307a5.779 5.779 0 0 0-1.749-1.56l-13.116-7.542a5.926 5.926 0 0 0-5.894.004L6.955 55.323a5.863 5.863 0 0 0-1.763 1.588l3.997 2.306a4.68 4.68 0 0 1 1.34-1.184M20.588 83.7L10.53 77.897a4.786 4.786 0 0 1-2.39-4.136V62.17c0-.456.075-.9.201-1.326l-4.008-2.312A5.77 5.77 0 0 0 4 60.438v15.055a5.918 5.918 0 0 0 2.955 5.114l13.062 7.537c.62.356 1.3.585 2.024.696v-4.613a4.63 4.63 0 0 1-1.453-.527"/>
            <path fill="#AC3BB5" d="M19.247 67.133l-10.906-6.29c-.126.426-.2.87-.2 1.326V73.76c0 1.702.916 3.287 2.39 4.136L20.587 83.7c.457.262.949.43 1.453.525V72.022c-.032-1.77-.519-3.281-2.794-4.889"/>
        </g>
    </g>
</svg>
